<svg width="106" height="19" viewBox="0 0 106 19" fill="none" xmlns="http://www.w3.org/2000/svg">
<path d="M18.7148 0.914062L17.6367 18.1172L12.293 18.3516L12.3398 9.28125L9.92578 16.5938H7.86328L6.01172 10.0547L5.98828 17.6484L0.574219 17.8125L0.808594 1.61719L6.83203 1.38281L9.22266 9.14062L12.4102 0.914062H18.7148ZM32.543 8.53125C32.543 9.21094 32.4961 9.89062 32.4023 10.5703C31.0664 10.6562 29.7383 10.7969 28.418 10.9922C27.0977 11.1797 25.7773 11.3672 24.457 11.5547C24.6602 12.1172 24.9766 12.5664 25.4062 12.9023C25.8438 13.2383 26.3633 13.4062 26.9648 13.4062C27.2773 13.4062 27.6172 13.3477 27.9844 13.2305C28.3594 13.1133 28.7305 12.9688 29.0977 12.7969C29.4648 12.6172 29.8164 12.4258 30.1523 12.2227C30.4883 12.0195 30.7773 11.8359 31.0195 11.6719L30.457 16.9922C30.1523 17.2266 29.8203 17.4258 29.4609 17.5898C29.1094 17.7539 28.7422 17.8867 28.3594 17.9883C27.9766 18.0898 27.5898 18.1641 27.1992 18.2109C26.8086 18.2578 26.4258 18.2812 26.0508 18.2812C25.2773 18.2812 24.5703 18.1758 23.9297 17.9648C23.2891 17.7539 22.707 17.4609 22.1836 17.0859C21.668 16.7031 21.2148 16.2539 20.8242 15.7383C20.4336 15.2227 20.1094 14.6602 19.8516 14.0508C19.5938 13.4414 19.3984 12.7969 19.2656 12.1172C19.1328 11.4375 19.0664 10.75 19.0664 10.0547C19.0664 9.32812 19.1328 8.60156 19.2656 7.875C19.3984 7.14844 19.5977 6.44922 19.8633 5.77734C20.1367 5.10547 20.4766 4.48438 20.8828 3.91406C21.2969 3.33594 21.7773 2.83203 22.3242 2.40234C22.8711 1.97266 23.4883 1.63672 24.1758 1.39453C24.8711 1.15234 25.6367 1.03125 26.4727 1.03125C27.168 1.03125 27.8008 1.12891 28.3711 1.32422C28.9492 1.51172 29.4609 1.77734 29.9062 2.12109C30.3594 2.45703 30.75 2.85938 31.0781 3.32812C31.4141 3.79688 31.6875 4.3125 31.8984 4.875C32.1172 5.42969 32.2773 6.01953 32.3789 6.64453C32.4883 7.26172 32.543 7.89062 32.543 8.53125ZM27.8555 7.92188C27.8555 7.70312 27.832 7.48047 27.7852 7.25391C27.7383 7.01953 27.6602 6.80859 27.5508 6.62109C27.4492 6.43359 27.3125 6.28125 27.1406 6.16406C26.9688 6.03906 26.7539 5.97656 26.4961 5.97656C26.1836 5.97656 25.9062 6.0625 25.6641 6.23438C25.4297 6.39844 25.2266 6.60938 25.0547 6.86719C24.8828 7.11719 24.7422 7.39062 24.6328 7.6875C24.5234 7.98438 24.4414 8.25781 24.3867 8.50781L27.8555 8.17969V7.92188ZM47.625 15.375C47.2578 15.8359 46.8047 16.2383 46.2656 16.582C45.7266 16.9258 45.1484 17.2109 44.5312 17.4375C43.9141 17.6641 43.2812 17.8359 42.6328 17.9531C41.9844 18.0625 41.3672 18.1172 40.7812 18.1172C39.6484 18.1172 38.6055 17.9258 37.6523 17.543C36.6992 17.1602 35.875 16.6289 35.1797 15.9492C34.4922 15.2617 33.9531 14.4453 33.5625 13.5C33.1719 12.5547 32.9766 11.5234 32.9766 10.4062C32.9766 9.55469 33.0742 8.72656 33.2695 7.92188C33.4648 7.11719 33.7422 6.36328 34.1016 5.66016C34.4688 4.95703 34.9141 4.3125 35.4375 3.72656C35.9609 3.14062 36.5547 2.63672 37.2188 2.21484C37.8828 1.79297 38.6094 1.46875 39.3984 1.24219C40.1953 1.00781 41.0391 0.890625 41.9297 0.890625C42.2656 0.890625 42.625 0.90625 43.0078 0.9375C43.3906 0.960938 43.7695 1.00781 44.1445 1.07812C44.5273 1.14062 44.8984 1.23047 45.2578 1.34766C45.6172 1.46484 45.9453 1.60937 46.2422 1.78125L45.9141 6.25781C45.4766 6.09375 45.0234 5.98438 44.5547 5.92969C44.0938 5.86719 43.6406 5.83594 43.1953 5.83594C42.5703 5.83594 41.9844 5.92187 41.4375 6.09375C40.8984 6.25781 40.4258 6.50391 40.0195 6.83203C39.6211 7.16016 39.3047 7.57031 39.0703 8.0625C38.8359 8.55469 38.7188 9.125 38.7188 9.77344C38.7188 10.1797 38.7734 10.5742 38.8828 10.957C38.9922 11.332 39.1562 11.668 39.375 11.9648C39.6016 12.2539 39.8789 12.4883 40.207 12.668C40.543 12.8477 40.9297 12.9375 41.3672 12.9375C41.6641 12.9375 41.9688 12.8984 42.2812 12.8203C42.6016 12.7422 42.875 12.6094 43.1016 12.4219L43.1484 11.5078L40.3359 11.4609L40.4766 7.94531C41.6406 7.90625 42.8047 7.875 43.9688 7.85156C45.1328 7.82031 46.3047 7.78125 47.4844 7.73438L47.625 15.375ZM63.3047 16.9922L57.4922 17.7422L56.7891 15.0938H54.1172L53.5312 17.7422L47.5547 17.1562L52.2188 1.54688L58.7344 1.21875L63.3047 16.9922ZM56.3672 11.5078L55.4766 7.42969L54.6094 11.5078H56.3672ZM74.5547 1.24219L74.4375 6.21094L70.9453 6.35156L70.0547 17.4609L65.1094 17.7188L65.1328 6.60938L61.6406 6.79688L61.7812 1.26562L74.5547 1.24219ZM89.2148 9.72656C89.2148 10.4375 89.1328 11.125 88.9688 11.7891C88.8047 12.4453 88.5664 13.0625 88.2539 13.6406C87.9492 14.2188 87.5742 14.75 87.1289 15.2344C86.6914 15.7109 86.1953 16.1211 85.6406 16.4648C85.0938 16.8086 84.4961 17.0781 83.8477 17.2734C83.1992 17.4609 82.5117 17.5547 81.7852 17.5547C81.082 17.5547 80.4102 17.4648 79.7695 17.2852C79.1367 17.1055 78.543 16.8555 77.9883 16.5352C77.4336 16.207 76.9297 15.8164 76.4766 15.3633C76.0312 14.9023 75.6484 14.3945 75.3281 13.8398C75.0156 13.2773 74.7695 12.6758 74.5898 12.0352C74.418 11.3945 74.332 10.7266 74.332 10.0312C74.332 9.35156 74.4141 8.6875 74.5781 8.03906C74.7422 7.38281 74.9766 6.76562 75.2812 6.1875C75.5938 5.60938 75.9688 5.07812 76.4062 4.59375C76.8438 4.10938 77.332 3.69141 77.8711 3.33984C78.418 2.98828 79.0078 2.71484 79.6406 2.51953C80.2734 2.32422 80.9414 2.22656 81.6445 2.22656C82.7773 2.22656 83.8086 2.40234 84.7383 2.75391C85.6758 3.10547 86.4727 3.60938 87.1289 4.26562C87.793 4.91406 88.3047 5.70313 88.6641 6.63281C89.0312 7.55469 89.2148 8.58594 89.2148 9.72656ZM84.0117 10.0312C84.0117 9.69531 83.9609 9.37109 83.8594 9.05859C83.7656 8.73828 83.625 8.45703 83.4375 8.21484C83.25 7.96484 83.0156 7.76562 82.7344 7.61719C82.4609 7.46094 82.1445 7.38281 81.7852 7.38281C81.418 7.38281 81.0898 7.44922 80.8008 7.58203C80.5117 7.71484 80.2617 7.89844 80.0508 8.13281C79.8477 8.35938 79.6914 8.62891 79.582 8.94141C79.4727 9.24609 79.418 9.57031 79.418 9.91406C79.418 10.2422 79.4648 10.5703 79.5586 10.8984C79.6523 11.2266 79.793 11.5234 79.9805 11.7891C80.168 12.0547 80.3984 12.2695 80.6719 12.4336C80.9531 12.5977 81.2773 12.6797 81.6445 12.6797C82.0117 12.6797 82.3398 12.6094 82.6289 12.4688C82.9258 12.3203 83.1758 12.125 83.3789 11.8828C83.582 11.6328 83.7383 11.3477 83.8477 11.0273C83.957 10.707 84.0117 10.375 84.0117 10.0312ZM105.973 1.19531L105.129 17.0859L98.9883 17.6484L95.707 9.14062L95.1914 17.8125H89.918L90.3398 1.19531L96.1992 0.914062L100.254 9.35156L100.441 1.38281L105.973 1.19531Z" fill="#5754E1"/>
</svg>
