<svg width="12" height="12" viewBox="0 0 12 12" fill="none" xmlns="http://www.w3.org/2000/svg">
<g clip-path="url(#clip0_22_474)">
<path d="M11.6923 9.73559L2.28788 0.331174C1.87773 -0.0789786 1.21277 -0.0789786 0.803259 0.331174L0.307615 0.826049C-0.102538 1.23633 -0.102538 1.90129 0.307615 2.3108L9.71203 11.7152C10.1223 12.1254 10.7873 12.1254 11.1968 11.7152L11.6917 11.2203C12.1026 10.8108 12.1026 10.1457 11.6923 9.73559Z" fill="#CCD2DC"/>
<path d="M9.71203 0.331261L0.307615 9.73568C-0.102538 10.1458 -0.102538 10.8109 0.307615 11.2204L0.80249 11.7153C1.21277 12.1255 1.87773 12.1255 2.28724 11.7153L11.6923 2.31153C12.1026 1.90138 12.1026 1.23642 11.6923 0.826905L11.1974 0.33203C10.7873 -0.0788916 10.1223 -0.0788916 9.71203 0.331261Z" fill="#CCD2DC"/>
</g>
<defs>
<clipPath id="clip0_22_474">
<rect width="12" height="12" fill="white"/>
</clipPath>
</defs>
</svg>
