<svg width="16" height="16" viewBox="0 0 16 16" fill="none" xmlns="http://www.w3.org/2000/svg">
<path d="M12.8467 3.55334C11.96 3.14001 11 2.84001 10 2.66667C9.99123 2.66639 9.98251 2.66804 9.97444 2.67149C9.96638 2.67495 9.95917 2.68013 9.95333 2.68667C9.83333 2.90667 9.69333 3.19334 9.6 3.41334C8.53933 3.25334 7.46066 3.25334 6.4 3.41334C6.30666 3.18667 6.16666 2.90667 6.04 2.68667C6.03333 2.67334 6.01333 2.66667 5.99333 2.66667C4.99333 2.84001 4.04 3.14001 3.14666 3.55334C3.14 3.55334 3.13333 3.56001 3.12666 3.56667C1.31333 6.28001 0.81333 8.92 1.06 11.5333C1.06 11.5467 1.06666 11.56 1.08 11.5667C2.28 12.4467 3.43333 12.98 4.57333 13.3333C4.59333 13.34 4.61333 13.3333 4.62 13.32C4.88666 12.9533 5.12666 12.5667 5.33333 12.16C5.34666 12.1333 5.33333 12.1067 5.30666 12.1C4.92666 11.9533 4.56666 11.78 4.21333 11.58C4.18666 11.5667 4.18666 11.5267 4.20666 11.5067C4.28 11.4533 4.35333 11.3933 4.42666 11.34C4.44 11.3267 4.46 11.3267 4.47333 11.3333C6.76666 12.38 9.24 12.38 11.5067 11.3333C11.52 11.3267 11.54 11.3267 11.5533 11.34C11.6267 11.4 11.7 11.4533 11.7733 11.5133C11.8 11.5333 11.8 11.5733 11.7667 11.5867C11.42 11.7933 11.0533 11.96 10.6733 12.1067C10.6467 12.1133 10.64 12.1467 10.6467 12.1667C10.86 12.5733 11.1 12.96 11.36 13.3267C11.38 13.3333 11.4 13.34 11.42 13.3333C12.5667 12.98 13.72 12.4467 14.92 11.5667C14.9333 11.56 14.94 11.5467 14.94 11.5333C15.2333 8.51334 14.4533 5.89334 12.8733 3.56667C12.8667 3.56001 12.86 3.55334 12.8467 3.55334ZM5.68 9.94001C4.99333 9.94001 4.42 9.30667 4.42 8.52667C4.42 7.74667 4.98 7.11334 5.68 7.11334C6.38666 7.11334 6.94666 7.75334 6.94 8.52667C6.94 9.30667 6.38 9.94001 5.68 9.94001ZM10.3267 9.94001C9.64 9.94001 9.06666 9.30667 9.06666 8.52667C9.06666 7.74667 9.62666 7.11334 10.3267 7.11334C11.0333 7.11334 11.5933 7.75334 11.5867 8.52667C11.5867 9.30667 11.0333 9.94001 10.3267 9.94001Z" fill="#5754E1"/>
</svg>
