<svg width="16" height="16" viewBox="0 0 16 16" fill="none" xmlns="http://www.w3.org/2000/svg">
<g clip-path="url(#clip0_18_125)">
<path d="M11.556 16H2.66714C1.9548 16 1.28516 15.7226 0.781511 15.2189C0.277866 14.7152 0.000488281 14.0456 0.000488281 13.3333V4.44444C0.000488281 3.73213 0.277897 3.06249 0.781543 2.55884C1.28519 2.0552 1.95483 1.77779 2.66717 1.77779H6.22272C6.71366 1.77779 7.11161 2.17574 7.11161 2.66668C7.11161 3.15763 6.71366 3.55558 6.22272 3.55558H2.66714C2.42969 3.55558 2.2065 3.64805 2.03864 3.81591C1.87078 3.98377 1.77828 4.20699 1.77828 4.44444V13.3333C1.77828 13.5708 1.87075 13.794 2.03864 13.9619C2.2065 14.1297 2.42969 14.2222 2.66714 14.2222H11.556C11.7934 14.2222 12.0166 14.1297 12.1845 13.9618C12.3524 13.794 12.4448 13.5707 12.4448 13.3333V9.77777C12.4448 9.28683 12.8428 8.88891 13.3338 8.88891C13.8247 8.88891 14.2227 9.28686 14.2227 9.77777V13.3333C14.2227 14.0456 13.9453 14.7152 13.4416 15.2189C12.9379 15.7226 12.2683 16 11.556 16ZM6.22272 10.6666C5.99521 10.6666 5.76773 10.5799 5.59418 10.4063C5.24707 10.0592 5.24707 9.49633 5.59418 9.14921L12.9656 1.77779H9.77826C9.28731 1.77779 8.8894 1.37984 8.8894 0.888894C8.8894 0.397948 9.28731 0 9.77826 0H15.1116C15.2345 0 15.3516 0.0249649 15.4581 0.0700819C15.5575 0.112125 15.6509 0.173047 15.7325 0.252878L15.7326 0.252941C15.7332 0.253531 15.7338 0.254089 15.7343 0.254679C15.7345 0.254835 15.7347 0.255021 15.7348 0.255176C15.7353 0.255611 15.7358 0.256077 15.7362 0.256543C15.7365 0.256853 15.7368 0.257132 15.7371 0.257443C15.7375 0.257785 15.7378 0.258157 15.7381 0.258437C15.7387 0.259058 15.7394 0.25971 15.74 0.260362C15.7407 0.260983 15.7413 0.261666 15.742 0.262287C15.7423 0.262597 15.7427 0.263001 15.7429 0.263281C15.7433 0.263591 15.7435 0.263871 15.7438 0.264181C15.7443 0.264647 15.7448 0.265082 15.7452 0.265578C15.7453 0.265703 15.7456 0.26592 15.7457 0.266075C15.7463 0.266665 15.7469 0.267255 15.7474 0.267845L15.7475 0.267907C15.8273 0.349633 15.8882 0.442972 15.9303 0.542335C15.9754 0.64884 16.0004 0.765901 16.0004 0.888863V6.2222C16.0004 6.71314 15.6024 7.11109 15.1114 7.11109C14.6205 7.11109 14.2226 6.71314 14.2226 6.2222V3.03488L6.85109 10.4063C6.67767 10.5799 6.45019 10.6666 6.22272 10.6666Z" fill="#6D6FF6"/>
</g>
<defs>
<clipPath id="clip0_18_125">
<rect width="16" height="16" fill="white"/>
</clipPath>
</defs>
</svg>
