<svg width="24" height="24" viewBox="0 0 24 24" fill="none" xmlns="http://www.w3.org/2000/svg">
<path d="M12.058 20C9.83532 20 7.94632 19.2223 6.39098 17.667C4.83565 16.111 4.05798 14.222 4.05798 12C4.05798 9.97465 4.71798 8.21798 6.03798 6.72998C7.35932 5.24332 8.99398 4.36565 10.942 4.09698C10.996 4.09698 11.049 4.09898 11.101 4.10298C11.153 4.10698 11.204 4.11265 11.254 4.11998C10.9166 4.59065 10.6497 5.11398 10.453 5.68998C10.2563 6.26665 10.158 6.87032 10.158 7.50098C10.158 9.27898 10.78 10.79 12.024 12.034C13.2687 13.2787 14.78 13.901 16.558 13.901C17.1926 13.901 17.797 13.8027 18.371 13.606C18.9457 13.4093 19.4616 13.1423 19.919 12.805C19.927 12.855 19.933 12.906 19.937 12.958C19.9403 13.01 19.942 13.0627 19.942 13.116C19.686 15.0647 18.8143 16.6993 17.327 18.02C15.8396 19.3407 14.084 20.0007 12.058 20Z" fill="#5754E1"/>
</svg>
