<svg width="12" height="12" viewBox="0 0 12 12" fill="none" xmlns="http://www.w3.org/2000/svg">
<g clip-path="url(#clip0_22_720)">
<path d="M10.436 11.4268L10.436 11.4268L10.4376 11.4283C10.5697 11.5559 10.7467 11.6266 10.9304 11.625C11.1141 11.6234 11.2899 11.5497 11.4198 11.4198C11.5497 11.2899 11.6234 11.1141 11.625 10.9304C11.6266 10.7467 11.5559 10.5697 11.4283 10.4376L11.4283 10.4376L11.4268 10.436L9.40209 8.41142C9.9457 7.68947 10.2847 6.83348 10.3822 5.93366C10.4837 4.99695 10.3194 4.05059 9.90819 3.20288C9.49694 2.35516 8.85533 1.64035 8.05679 1.14024C7.25825 0.640134 6.33504 0.374937 5.39282 0.375C4.59261 0.375068 3.80402 0.566491 3.09284 0.933299C2.38166 1.30011 1.76852 1.83166 1.30456 2.48362C0.840609 3.13557 0.539296 3.88902 0.425764 4.68111C0.312233 5.47319 0.389775 6.28094 0.651922 7.03696C0.914069 7.79299 1.35322 8.47536 1.93273 9.02715C2.51224 9.57894 3.21532 9.98415 3.98329 10.209C4.75126 10.4338 5.56187 10.4717 6.34747 10.3196C7.09666 10.1745 7.8024 9.86051 8.4113 9.40216L10.436 11.4268ZM1.77593 5.39306C1.77593 4.43384 2.157 3.5139 2.8353 2.83563C3.51359 2.15736 4.43356 1.77631 5.39283 1.77631C6.35209 1.77631 7.27206 2.15736 7.95036 2.83563C8.62865 3.5139 9.00972 4.43384 9.00972 5.39306C9.00972 6.35228 8.62865 7.27221 7.95036 7.95048C7.27206 8.62875 6.35209 9.0098 5.39283 9.0098C4.43356 9.0098 3.51359 8.62875 2.8353 7.95048C2.157 7.27221 1.77593 6.35228 1.77593 5.39306Z" fill="#CCD2DC" stroke="#CCD2DC" stroke-width="0.25"/>
</g>
<defs>
<clipPath id="clip0_22_720">
<rect width="12" height="12" fill="white"/>
</clipPath>
</defs>
</svg>
