<svg width="32" height="32" viewBox="0 0 32 32" fill="none" xmlns="http://www.w3.org/2000/svg">
<path d="M15.3683 0.0160522C15.7948 0.0160522 16.2213 0.0160522 16.6478 0.0160522C16.6743 0.0202418 16.7001 0.0265262 16.7266 0.0279227C17.3346 0.0495689 17.9384 0.113809 18.538 0.210868C20.3619 0.506233 22.086 1.09487 23.7061 1.98446C25.3723 2.89988 26.8312 4.07296 28.0778 5.50719C29.529 7.17674 30.5893 9.06764 31.2587 11.1764C31.6538 12.4214 31.8932 13.6957 31.9749 15.0001C31.9825 15.1223 31.9749 15.2452 32.0007 15.366V16.6452C31.9965 16.6717 31.9902 16.6976 31.9888 16.7241C31.9672 17.3106 31.9051 17.8923 31.8143 18.4718C31.5463 20.184 31.0151 21.8102 30.2187 23.3499C29.2973 25.1312 28.0855 26.6855 26.5799 28.0101C24.9039 29.4841 23.0025 30.5616 20.8764 31.2417C19.0664 31.8205 17.2125 32.0677 15.3131 31.9853C14.6521 31.9567 13.996 31.8869 13.344 31.7772C11.5424 31.4735 9.84347 30.8772 8.2464 29.9918C6.78056 29.179 5.47526 28.1602 4.32911 26.9362C3.72463 26.291 3.17738 25.6004 2.68807 24.8644C1.85394 23.6097 1.20827 22.2641 0.754557 20.8264C0.362968 19.5863 0.122849 18.3175 0.041879 17.0188C0.0342007 16.8945 0.0404829 16.7681 0.0160522 16.6452C0.0160522 16.2185 0.0160522 15.7926 0.0160522 15.366C0.0202404 15.3373 0.0265225 15.308 0.0279186 15.2794C0.0502552 14.6747 0.114473 14.0735 0.2108 13.4765C0.483725 11.7902 1.00864 10.187 1.79391 8.66893C2.63712 7.03918 3.72603 5.59587 5.06413 4.3404C6.26472 3.2141 7.60701 2.29379 9.0917 1.58365C10.9624 0.689178 12.9322 0.17386 15.0025 0.0411897C15.1247 0.0335088 15.2475 0.0411897 15.3683 0.0160522ZM16.0077 10.5878C14.5097 10.5878 13.0125 10.5878 11.5145 10.5878C11.3861 10.5878 11.259 10.5975 11.132 10.6129C10.8312 10.6499 10.5778 10.8126 10.3097 10.9327C10.1611 10.999 10.0354 11.1094 9.937 11.2413C9.63546 11.6456 9.45607 12.0869 9.49655 12.6071C9.51819 12.8871 9.5859 13.1455 9.7248 13.3885C10.1848 14.1936 10.642 15.0001 11.102 15.8052C12.5148 18.2819 13.9276 20.758 15.3397 23.234C15.392 23.3262 15.4604 23.4023 15.5379 23.4721C15.8534 23.7563 16.4363 23.6921 16.6492 23.2927C16.9221 22.7801 17.2285 22.2858 17.521 21.7844C18.4689 20.1568 19.4175 18.5291 20.3654 16.9008C21.0048 15.8024 21.6393 14.7012 22.2871 13.6077C22.627 13.0338 22.6458 12.4458 22.4239 11.8349C22.3785 11.7099 22.2947 11.6051 22.2291 11.4913C22.086 11.2413 21.9024 11.0381 21.6526 10.8971C21.2882 10.6918 20.9008 10.5843 20.4778 10.5857C18.9882 10.5912 17.4986 10.5878 16.0084 10.5878H16.0077Z" fill="#5754E1"/>
<path d="M16.7092 20.3278C16.6848 20.2783 16.691 20.2461 16.691 20.2147C16.691 17.5257 16.691 14.8367 16.691 12.1477C16.691 12.1239 16.6924 12.0995 16.691 12.0758C16.6896 12.0248 16.7155 12.0031 16.765 12.0052C16.786 12.0059 16.8076 12.0052 16.8292 12.0052C18.055 12.0052 19.2814 12.0052 20.5071 12.0052C20.5895 12.0052 20.6718 12.0052 20.7535 12.0213C20.905 12.0527 21.0997 12.2447 21.0997 12.441C21.0997 12.6518 21.0599 12.839 20.9517 13.0254C19.5794 15.3806 18.2127 17.7394 16.8439 20.0974C16.8013 20.17 16.7594 20.2426 16.7092 20.3278Z" fill="#5754E1"/>
<path d="M15.3117 20.2538C15.2789 20.2364 15.2713 20.2098 15.258 20.1868C13.8543 17.7547 12.4513 15.3227 11.0482 12.8899C11.0071 12.8187 10.9749 12.7405 10.9282 12.6735C10.7753 12.4556 10.9044 12.1728 11.0748 12.0464C11.1885 11.9619 11.3156 11.9417 11.4517 11.9417C12.5978 11.9424 13.7433 11.9417 14.8894 11.9417C15.0067 11.9417 15.124 11.9431 15.2412 11.9417C15.302 11.941 15.3306 11.9661 15.3264 12.0276C15.325 12.0513 15.3264 12.0758 15.3264 12.0995C15.3264 14.7773 15.3264 17.4545 15.3264 20.1323C15.3264 20.1707 15.3362 20.2112 15.3131 20.2531L15.3117 20.2538Z" fill="#5754E1"/>
</svg>
